<mxfile host="app.diagrams.net" modified="2023-11-20T14:28:53.854Z" agent="Mozilla/5.0 (Windows NT 10.0; Win64; x64) AppleWebKit/537.36 (KHTML, like Gecko) Chrome/119.0.0.0 Safari/537.36" etag="9FDWaUj45-tPPFPWL4zO" version="22.1.3" type="device">
  <diagram name="Page-1" id="zhPtkhsFCDVQULa813qI">
    <mxGraphModel dx="1434" dy="772" grid="1" gridSize="10" guides="1" tooltips="1" connect="1" arrows="1" fold="1" page="1" pageScale="1" pageWidth="1169" pageHeight="1654" math="0" shadow="0">
      <root>
        <mxCell id="0" />
        <mxCell id="1" parent="0" />
        <mxCell id="i-N_NPJ1NRgo4SKCPgXw-2" value="" style="rounded=0;whiteSpace=wrap;html=1;" parent="1" vertex="1">
          <mxGeometry x="40" y="370" width="170" height="170" as="geometry" />
        </mxCell>
        <mxCell id="i-N_NPJ1NRgo4SKCPgXw-3" value="1. Add data to tables" style="text;html=1;strokeColor=none;fillColor=none;align=center;verticalAlign=middle;whiteSpace=wrap;rounded=0;" parent="1" vertex="1">
          <mxGeometry x="52" y="380" width="120" height="30" as="geometry" />
        </mxCell>
        <mxCell id="i-N_NPJ1NRgo4SKCPgXw-4" value="2. Update data in tables" style="text;html=1;strokeColor=none;fillColor=none;align=center;verticalAlign=middle;whiteSpace=wrap;rounded=0;" parent="1" vertex="1">
          <mxGeometry x="50" y="410" width="140" height="30" as="geometry" />
        </mxCell>
        <mxCell id="i-N_NPJ1NRgo4SKCPgXw-5" value="3. Delete data in tables" style="text;html=1;strokeColor=none;fillColor=none;align=center;verticalAlign=middle;whiteSpace=wrap;rounded=0;" parent="1" vertex="1">
          <mxGeometry x="53" y="440" width="130" height="30" as="geometry" />
        </mxCell>
        <mxCell id="i-N_NPJ1NRgo4SKCPgXw-6" value="4. Generate data in tables" style="text;html=1;strokeColor=none;fillColor=none;align=center;verticalAlign=middle;whiteSpace=wrap;rounded=0;" parent="1" vertex="1">
          <mxGeometry x="50" y="470" width="150" height="30" as="geometry" />
        </mxCell>
        <mxCell id="i-N_NPJ1NRgo4SKCPgXw-7" value="5. Search data in tables" style="text;html=1;strokeColor=none;fillColor=none;align=center;verticalAlign=middle;whiteSpace=wrap;rounded=0;" parent="1" vertex="1">
          <mxGeometry x="50" y="500" width="140" height="30" as="geometry" />
        </mxCell>
        <mxCell id="i-N_NPJ1NRgo4SKCPgXw-15" value="" style="rounded=0;whiteSpace=wrap;html=1;" parent="1" vertex="1">
          <mxGeometry x="520" y="30" width="170" height="150" as="geometry" />
        </mxCell>
        <mxCell id="i-N_NPJ1NRgo4SKCPgXw-16" value="1. Columname" style="text;html=1;strokeColor=none;fillColor=none;align=left;verticalAlign=middle;whiteSpace=wrap;rounded=0;" parent="1" vertex="1">
          <mxGeometry x="530" y="65" width="120" height="30" as="geometry" />
        </mxCell>
        <mxCell id="i-N_NPJ1NRgo4SKCPgXw-17" value="n. Columname" style="text;html=1;strokeColor=none;fillColor=none;align=left;verticalAlign=middle;whiteSpace=wrap;rounded=0;" parent="1" vertex="1">
          <mxGeometry x="530" y="120" width="120" height="30" as="geometry" />
        </mxCell>
        <mxCell id="i-N_NPJ1NRgo4SKCPgXw-18" value="..." style="text;html=1;strokeColor=none;fillColor=none;align=left;verticalAlign=middle;whiteSpace=wrap;rounded=0;" parent="1" vertex="1">
          <mxGeometry x="530" y="90" width="120" height="30" as="geometry" />
        </mxCell>
        <mxCell id="i-N_NPJ1NRgo4SKCPgXw-24" value="" style="rounded=0;whiteSpace=wrap;html=1;" parent="1" vertex="1">
          <mxGeometry x="730" y="30" width="170" height="150" as="geometry" />
        </mxCell>
        <mxCell id="i-N_NPJ1NRgo4SKCPgXw-26" value="Enter a value for each column" style="text;html=1;strokeColor=none;fillColor=none;align=center;verticalAlign=middle;whiteSpace=wrap;rounded=0;" parent="1" vertex="1">
          <mxGeometry x="765" y="90" width="100" height="30" as="geometry" />
        </mxCell>
        <mxCell id="i-N_NPJ1NRgo4SKCPgXw-29" value="" style="endArrow=classic;html=1;rounded=0;exitX=1;exitY=0.5;exitDx=0;exitDy=0;entryX=0;entryY=0.5;entryDx=0;entryDy=0;" parent="1" source="i-N_NPJ1NRgo4SKCPgXw-15" target="i-N_NPJ1NRgo4SKCPgXw-24" edge="1">
          <mxGeometry width="50" height="50" relative="1" as="geometry">
            <mxPoint x="390" y="340" as="sourcePoint" />
            <mxPoint x="440" y="290" as="targetPoint" />
          </mxGeometry>
        </mxCell>
        <mxCell id="i-N_NPJ1NRgo4SKCPgXw-30" value="" style="rounded=0;whiteSpace=wrap;html=1;" parent="1" vertex="1">
          <mxGeometry x="310" y="200" width="170" height="150" as="geometry" />
        </mxCell>
        <mxCell id="i-N_NPJ1NRgo4SKCPgXw-31" value="1. Tablename" style="text;html=1;strokeColor=none;fillColor=none;align=left;verticalAlign=middle;whiteSpace=wrap;rounded=0;" parent="1" vertex="1">
          <mxGeometry x="320" y="245" width="120" height="30" as="geometry" />
        </mxCell>
        <mxCell id="i-N_NPJ1NRgo4SKCPgXw-32" value="n. Tablename" style="text;html=1;strokeColor=none;fillColor=none;align=left;verticalAlign=middle;whiteSpace=wrap;rounded=0;" parent="1" vertex="1">
          <mxGeometry x="320" y="300" width="120" height="30" as="geometry" />
        </mxCell>
        <mxCell id="i-N_NPJ1NRgo4SKCPgXw-33" value="..." style="text;html=1;strokeColor=none;fillColor=none;align=left;verticalAlign=middle;whiteSpace=wrap;rounded=0;" parent="1" vertex="1">
          <mxGeometry x="320" y="270" width="120" height="30" as="geometry" />
        </mxCell>
        <mxCell id="i-N_NPJ1NRgo4SKCPgXw-34" value="" style="rounded=0;whiteSpace=wrap;html=1;" parent="1" vertex="1">
          <mxGeometry x="520" y="200" width="170" height="150" as="geometry" />
        </mxCell>
        <mxCell id="i-N_NPJ1NRgo4SKCPgXw-35" value="1. Tablename" style="text;html=1;strokeColor=none;fillColor=none;align=left;verticalAlign=middle;whiteSpace=wrap;rounded=0;" parent="1" vertex="1">
          <mxGeometry x="530" y="245" width="120" height="30" as="geometry" />
        </mxCell>
        <mxCell id="i-N_NPJ1NRgo4SKCPgXw-36" value="n. Tablename" style="text;html=1;strokeColor=none;fillColor=none;align=left;verticalAlign=middle;whiteSpace=wrap;rounded=0;" parent="1" vertex="1">
          <mxGeometry x="530" y="300" width="120" height="30" as="geometry" />
        </mxCell>
        <mxCell id="i-N_NPJ1NRgo4SKCPgXw-37" value="..." style="text;html=1;strokeColor=none;fillColor=none;align=left;verticalAlign=middle;whiteSpace=wrap;rounded=0;" parent="1" vertex="1">
          <mxGeometry x="530" y="270" width="120" height="30" as="geometry" />
        </mxCell>
        <mxCell id="T0hSPxfZxLMCX3eP8zD--1" value="Choose column for update" style="text;html=1;strokeColor=none;fillColor=none;align=left;verticalAlign=middle;whiteSpace=wrap;rounded=0;" vertex="1" parent="1">
          <mxGeometry x="530" y="210" width="150" height="30" as="geometry" />
        </mxCell>
        <mxCell id="T0hSPxfZxLMCX3eP8zD--2" value="" style="rounded=0;whiteSpace=wrap;html=1;" vertex="1" parent="1">
          <mxGeometry x="730" y="200" width="170" height="150" as="geometry" />
        </mxCell>
        <mxCell id="T0hSPxfZxLMCX3eP8zD--7" value="Enter old and new value column" style="text;html=1;strokeColor=none;fillColor=none;align=center;verticalAlign=middle;whiteSpace=wrap;rounded=0;" vertex="1" parent="1">
          <mxGeometry x="757.5" y="255" width="115" height="30" as="geometry" />
        </mxCell>
        <mxCell id="T0hSPxfZxLMCX3eP8zD--8" value="Choose table for update" style="text;html=1;strokeColor=none;fillColor=none;align=left;verticalAlign=middle;whiteSpace=wrap;rounded=0;" vertex="1" parent="1">
          <mxGeometry x="320" y="210" width="150" height="30" as="geometry" />
        </mxCell>
        <mxCell id="T0hSPxfZxLMCX3eP8zD--9" value="" style="rounded=0;whiteSpace=wrap;html=1;" vertex="1" parent="1">
          <mxGeometry x="310" y="30" width="170" height="150" as="geometry" />
        </mxCell>
        <mxCell id="T0hSPxfZxLMCX3eP8zD--10" value="1. Tablename" style="text;html=1;strokeColor=none;fillColor=none;align=left;verticalAlign=middle;whiteSpace=wrap;rounded=0;" vertex="1" parent="1">
          <mxGeometry x="320" y="75" width="120" height="30" as="geometry" />
        </mxCell>
        <mxCell id="T0hSPxfZxLMCX3eP8zD--11" value="n. Tablename" style="text;html=1;strokeColor=none;fillColor=none;align=left;verticalAlign=middle;whiteSpace=wrap;rounded=0;" vertex="1" parent="1">
          <mxGeometry x="320" y="130" width="120" height="30" as="geometry" />
        </mxCell>
        <mxCell id="T0hSPxfZxLMCX3eP8zD--12" value="..." style="text;html=1;strokeColor=none;fillColor=none;align=left;verticalAlign=middle;whiteSpace=wrap;rounded=0;" vertex="1" parent="1">
          <mxGeometry x="320" y="100" width="120" height="30" as="geometry" />
        </mxCell>
        <mxCell id="T0hSPxfZxLMCX3eP8zD--13" value="Choose table for insert" style="text;html=1;strokeColor=none;fillColor=none;align=left;verticalAlign=middle;whiteSpace=wrap;rounded=0;" vertex="1" parent="1">
          <mxGeometry x="320" y="40" width="150" height="30" as="geometry" />
        </mxCell>
        <mxCell id="T0hSPxfZxLMCX3eP8zD--14" value="" style="endArrow=classic;html=1;rounded=0;exitX=1.012;exitY=0.135;exitDx=0;exitDy=0;exitPerimeter=0;edgeStyle=orthogonalEdgeStyle;" edge="1" parent="1" source="i-N_NPJ1NRgo4SKCPgXw-2">
          <mxGeometry width="50" height="50" relative="1" as="geometry">
            <mxPoint x="560" y="400" as="sourcePoint" />
            <mxPoint x="310" y="120" as="targetPoint" />
            <Array as="points">
              <mxPoint x="270" y="273" />
              <mxPoint x="270" y="120" />
              <mxPoint x="307" y="120" />
            </Array>
          </mxGeometry>
        </mxCell>
        <mxCell id="T0hSPxfZxLMCX3eP8zD--15" value="" style="endArrow=classic;html=1;rounded=0;exitX=1;exitY=0.5;exitDx=0;exitDy=0;entryX=0;entryY=0.5;entryDx=0;entryDy=0;" edge="1" parent="1" source="T0hSPxfZxLMCX3eP8zD--9" target="i-N_NPJ1NRgo4SKCPgXw-15">
          <mxGeometry width="50" height="50" relative="1" as="geometry">
            <mxPoint x="700" y="115" as="sourcePoint" />
            <mxPoint x="740" y="115" as="targetPoint" />
          </mxGeometry>
        </mxCell>
        <mxCell id="T0hSPxfZxLMCX3eP8zD--16" value="" style="endArrow=classic;html=1;rounded=0;exitX=1;exitY=0.5;exitDx=0;exitDy=0;entryX=0;entryY=0.5;entryDx=0;entryDy=0;" edge="1" parent="1" source="i-N_NPJ1NRgo4SKCPgXw-30" target="i-N_NPJ1NRgo4SKCPgXw-34">
          <mxGeometry width="50" height="50" relative="1" as="geometry">
            <mxPoint x="560" y="400" as="sourcePoint" />
            <mxPoint x="610" y="350" as="targetPoint" />
          </mxGeometry>
        </mxCell>
        <mxCell id="T0hSPxfZxLMCX3eP8zD--17" value="" style="endArrow=classic;html=1;rounded=0;exitX=1;exitY=0.5;exitDx=0;exitDy=0;entryX=0;entryY=0.5;entryDx=0;entryDy=0;" edge="1" parent="1" source="i-N_NPJ1NRgo4SKCPgXw-34" target="T0hSPxfZxLMCX3eP8zD--2">
          <mxGeometry width="50" height="50" relative="1" as="geometry">
            <mxPoint x="560" y="400" as="sourcePoint" />
            <mxPoint x="610" y="350" as="targetPoint" />
          </mxGeometry>
        </mxCell>
        <mxCell id="T0hSPxfZxLMCX3eP8zD--18" value="" style="endArrow=classic;html=1;rounded=0;edgeStyle=elbowEdgeStyle;exitX=1.006;exitY=0.318;exitDx=0;exitDy=0;exitPerimeter=0;entryX=0;entryY=0.5;entryDx=0;entryDy=0;" edge="1" parent="1" source="i-N_NPJ1NRgo4SKCPgXw-2" target="i-N_NPJ1NRgo4SKCPgXw-30">
          <mxGeometry width="50" height="50" relative="1" as="geometry">
            <mxPoint x="560" y="300" as="sourcePoint" />
            <mxPoint x="610" y="250" as="targetPoint" />
            <Array as="points">
              <mxPoint x="290" y="320" />
            </Array>
          </mxGeometry>
        </mxCell>
        <mxCell id="T0hSPxfZxLMCX3eP8zD--19" value="" style="rounded=0;whiteSpace=wrap;html=1;" vertex="1" parent="1">
          <mxGeometry x="310" y="370" width="170" height="150" as="geometry" />
        </mxCell>
        <mxCell id="T0hSPxfZxLMCX3eP8zD--20" value="1. Tablename" style="text;html=1;strokeColor=none;fillColor=none;align=left;verticalAlign=middle;whiteSpace=wrap;rounded=0;" vertex="1" parent="1">
          <mxGeometry x="320" y="415" width="120" height="30" as="geometry" />
        </mxCell>
        <mxCell id="T0hSPxfZxLMCX3eP8zD--21" value="n. Tablename" style="text;html=1;strokeColor=none;fillColor=none;align=left;verticalAlign=middle;whiteSpace=wrap;rounded=0;" vertex="1" parent="1">
          <mxGeometry x="320" y="470" width="120" height="30" as="geometry" />
        </mxCell>
        <mxCell id="T0hSPxfZxLMCX3eP8zD--22" value="..." style="text;html=1;strokeColor=none;fillColor=none;align=left;verticalAlign=middle;whiteSpace=wrap;rounded=0;" vertex="1" parent="1">
          <mxGeometry x="320" y="440" width="120" height="30" as="geometry" />
        </mxCell>
        <mxCell id="T0hSPxfZxLMCX3eP8zD--23" value="" style="rounded=0;whiteSpace=wrap;html=1;" vertex="1" parent="1">
          <mxGeometry x="520" y="370" width="170" height="150" as="geometry" />
        </mxCell>
        <mxCell id="T0hSPxfZxLMCX3eP8zD--24" value="1. Tablename" style="text;html=1;strokeColor=none;fillColor=none;align=left;verticalAlign=middle;whiteSpace=wrap;rounded=0;" vertex="1" parent="1">
          <mxGeometry x="530" y="415" width="120" height="30" as="geometry" />
        </mxCell>
        <mxCell id="T0hSPxfZxLMCX3eP8zD--25" value="n. Tablename" style="text;html=1;strokeColor=none;fillColor=none;align=left;verticalAlign=middle;whiteSpace=wrap;rounded=0;" vertex="1" parent="1">
          <mxGeometry x="530" y="470" width="120" height="30" as="geometry" />
        </mxCell>
        <mxCell id="T0hSPxfZxLMCX3eP8zD--26" value="..." style="text;html=1;strokeColor=none;fillColor=none;align=left;verticalAlign=middle;whiteSpace=wrap;rounded=0;" vertex="1" parent="1">
          <mxGeometry x="530" y="440" width="120" height="30" as="geometry" />
        </mxCell>
        <mxCell id="T0hSPxfZxLMCX3eP8zD--27" value="Choose column for WHERE" style="text;html=1;strokeColor=none;fillColor=none;align=left;verticalAlign=middle;whiteSpace=wrap;rounded=0;" vertex="1" parent="1">
          <mxGeometry x="530" y="380" width="160" height="30" as="geometry" />
        </mxCell>
        <mxCell id="T0hSPxfZxLMCX3eP8zD--28" value="" style="rounded=0;whiteSpace=wrap;html=1;" vertex="1" parent="1">
          <mxGeometry x="730" y="370" width="170" height="150" as="geometry" />
        </mxCell>
        <mxCell id="T0hSPxfZxLMCX3eP8zD--29" value="Enter value for WHERE" style="text;html=1;strokeColor=none;fillColor=none;align=center;verticalAlign=middle;whiteSpace=wrap;rounded=0;" vertex="1" parent="1">
          <mxGeometry x="757.5" y="425" width="115" height="30" as="geometry" />
        </mxCell>
        <mxCell id="T0hSPxfZxLMCX3eP8zD--30" value="Choose table for delete" style="text;html=1;strokeColor=none;fillColor=none;align=left;verticalAlign=middle;whiteSpace=wrap;rounded=0;" vertex="1" parent="1">
          <mxGeometry x="320" y="380" width="150" height="30" as="geometry" />
        </mxCell>
        <mxCell id="T0hSPxfZxLMCX3eP8zD--31" value="" style="endArrow=classic;html=1;rounded=0;exitX=1;exitY=0.5;exitDx=0;exitDy=0;entryX=0;entryY=0.5;entryDx=0;entryDy=0;" edge="1" parent="1" source="T0hSPxfZxLMCX3eP8zD--19" target="T0hSPxfZxLMCX3eP8zD--23">
          <mxGeometry width="50" height="50" relative="1" as="geometry">
            <mxPoint x="560" y="570" as="sourcePoint" />
            <mxPoint x="610" y="520" as="targetPoint" />
          </mxGeometry>
        </mxCell>
        <mxCell id="T0hSPxfZxLMCX3eP8zD--32" value="" style="endArrow=classic;html=1;rounded=0;exitX=1;exitY=0.5;exitDx=0;exitDy=0;entryX=0;entryY=0.5;entryDx=0;entryDy=0;" edge="1" parent="1" source="T0hSPxfZxLMCX3eP8zD--23" target="T0hSPxfZxLMCX3eP8zD--28">
          <mxGeometry width="50" height="50" relative="1" as="geometry">
            <mxPoint x="560" y="570" as="sourcePoint" />
            <mxPoint x="610" y="520" as="targetPoint" />
          </mxGeometry>
        </mxCell>
        <mxCell id="T0hSPxfZxLMCX3eP8zD--33" value="" style="endArrow=classic;html=1;rounded=0;exitX=1;exitY=0.5;exitDx=0;exitDy=0;entryX=0;entryY=0.567;entryDx=0;entryDy=0;entryPerimeter=0;" edge="1" parent="1" source="i-N_NPJ1NRgo4SKCPgXw-2" target="T0hSPxfZxLMCX3eP8zD--19">
          <mxGeometry width="50" height="50" relative="1" as="geometry">
            <mxPoint x="560" y="500" as="sourcePoint" />
            <mxPoint x="610" y="450" as="targetPoint" />
          </mxGeometry>
        </mxCell>
        <mxCell id="T0hSPxfZxLMCX3eP8zD--34" value="" style="rounded=0;whiteSpace=wrap;html=1;" vertex="1" parent="1">
          <mxGeometry x="310" y="540" width="170" height="150" as="geometry" />
        </mxCell>
        <mxCell id="T0hSPxfZxLMCX3eP8zD--35" value="1. Tablename" style="text;html=1;strokeColor=none;fillColor=none;align=left;verticalAlign=middle;whiteSpace=wrap;rounded=0;" vertex="1" parent="1">
          <mxGeometry x="320" y="585" width="120" height="30" as="geometry" />
        </mxCell>
        <mxCell id="T0hSPxfZxLMCX3eP8zD--36" value="n. Tablename" style="text;html=1;strokeColor=none;fillColor=none;align=left;verticalAlign=middle;whiteSpace=wrap;rounded=0;" vertex="1" parent="1">
          <mxGeometry x="320" y="640" width="120" height="30" as="geometry" />
        </mxCell>
        <mxCell id="T0hSPxfZxLMCX3eP8zD--37" value="..." style="text;html=1;strokeColor=none;fillColor=none;align=left;verticalAlign=middle;whiteSpace=wrap;rounded=0;" vertex="1" parent="1">
          <mxGeometry x="320" y="610" width="120" height="30" as="geometry" />
        </mxCell>
        <mxCell id="T0hSPxfZxLMCX3eP8zD--43" value="" style="rounded=0;whiteSpace=wrap;html=1;" vertex="1" parent="1">
          <mxGeometry x="520" y="540" width="170" height="150" as="geometry" />
        </mxCell>
        <mxCell id="T0hSPxfZxLMCX3eP8zD--44" value="Enter amount of generate data" style="text;html=1;strokeColor=none;fillColor=none;align=center;verticalAlign=middle;whiteSpace=wrap;rounded=0;" vertex="1" parent="1">
          <mxGeometry x="547.5" y="597.5" width="115" height="35" as="geometry" />
        </mxCell>
        <mxCell id="T0hSPxfZxLMCX3eP8zD--45" value="Choose table for generate" style="text;html=1;strokeColor=none;fillColor=none;align=left;verticalAlign=middle;whiteSpace=wrap;rounded=0;" vertex="1" parent="1">
          <mxGeometry x="320" y="550" width="150" height="30" as="geometry" />
        </mxCell>
        <mxCell id="T0hSPxfZxLMCX3eP8zD--46" value="" style="endArrow=classic;html=1;rounded=0;exitX=1;exitY=0.5;exitDx=0;exitDy=0;entryX=0;entryY=0.5;entryDx=0;entryDy=0;" edge="1" parent="1" source="T0hSPxfZxLMCX3eP8zD--34">
          <mxGeometry width="50" height="50" relative="1" as="geometry">
            <mxPoint x="560" y="740" as="sourcePoint" />
            <mxPoint x="520" y="615" as="targetPoint" />
          </mxGeometry>
        </mxCell>
        <mxCell id="T0hSPxfZxLMCX3eP8zD--48" value="" style="endArrow=classic;html=1;rounded=0;edgeStyle=elbowEdgeStyle;exitX=1.012;exitY=0.682;exitDx=0;exitDy=0;exitPerimeter=0;entryX=0;entryY=0.5;entryDx=0;entryDy=0;" edge="1" parent="1" source="i-N_NPJ1NRgo4SKCPgXw-2" target="T0hSPxfZxLMCX3eP8zD--34">
          <mxGeometry width="50" height="50" relative="1" as="geometry">
            <mxPoint x="560" y="600" as="sourcePoint" />
            <mxPoint x="600" y="770" as="targetPoint" />
            <Array as="points">
              <mxPoint x="290" y="550" />
            </Array>
          </mxGeometry>
        </mxCell>
        <mxCell id="T0hSPxfZxLMCX3eP8zD--56" value="" style="rounded=0;whiteSpace=wrap;html=1;" vertex="1" parent="1">
          <mxGeometry x="310" y="710" width="170" height="140" as="geometry" />
        </mxCell>
        <mxCell id="T0hSPxfZxLMCX3eP8zD--57" value="1. Query" style="text;html=1;strokeColor=none;fillColor=none;align=left;verticalAlign=middle;whiteSpace=wrap;rounded=0;" vertex="1" parent="1">
          <mxGeometry x="320" y="755" width="120" height="30" as="geometry" />
        </mxCell>
        <mxCell id="T0hSPxfZxLMCX3eP8zD--58" value="3. Query" style="text;html=1;strokeColor=none;fillColor=none;align=left;verticalAlign=middle;whiteSpace=wrap;rounded=0;" vertex="1" parent="1">
          <mxGeometry x="320" y="804" width="120" height="30" as="geometry" />
        </mxCell>
        <mxCell id="T0hSPxfZxLMCX3eP8zD--59" value="2. Query" style="text;html=1;strokeColor=none;fillColor=none;align=left;verticalAlign=middle;whiteSpace=wrap;rounded=0;" vertex="1" parent="1">
          <mxGeometry x="320" y="780" width="120" height="30" as="geometry" />
        </mxCell>
        <mxCell id="T0hSPxfZxLMCX3eP8zD--62" value="Choose query" style="text;html=1;strokeColor=none;fillColor=none;align=left;verticalAlign=middle;whiteSpace=wrap;rounded=0;" vertex="1" parent="1">
          <mxGeometry x="320" y="720" width="150" height="30" as="geometry" />
        </mxCell>
        <mxCell id="T0hSPxfZxLMCX3eP8zD--64" value="" style="endArrow=classic;html=1;rounded=0;edgeStyle=elbowEdgeStyle;exitX=1;exitY=0.882;exitDx=0;exitDy=0;exitPerimeter=0;entryX=0;entryY=0.5;entryDx=0;entryDy=0;" edge="1" parent="1" source="i-N_NPJ1NRgo4SKCPgXw-2" target="T0hSPxfZxLMCX3eP8zD--56">
          <mxGeometry width="50" height="50" relative="1" as="geometry">
            <mxPoint x="560" y="700" as="sourcePoint" />
            <mxPoint x="610" y="650" as="targetPoint" />
            <Array as="points">
              <mxPoint x="270" y="570" />
              <mxPoint x="240" y="640" />
            </Array>
          </mxGeometry>
        </mxCell>
      </root>
    </mxGraphModel>
  </diagram>
</mxfile>
